<?xml version="1.0" standalone="no"?><!DOCTYPE svg PUBLIC "-//W3C//DTD SVG 1.1//EN" "http://www.w3.org/Graphics/SVG/1.1/DTD/svg11.dtd"><svg t="1510708391205" class="icon" style="" viewBox="0 0 1024 1024" version="1.1" xmlns="http://www.w3.org/2000/svg" p-id="1851" xmlns:xlink="http://www.w3.org/1999/xlink" width="200" height="200"><defs><style type="text/css"></style></defs><path d="M512 1024C232.106667 1024 0 791.893333 0 512S232.106667 0 512 0 1024 232.106667 1024 512 791.893333 1024 512 1024zM512 68.266667C266.24 68.266667 68.266667 266.24 68.266667 512S266.24 955.733333 512 955.733333 955.733333 757.76 955.733333 512 757.76 68.266667 512 68.266667z" p-id="1852"></path><path d="M757.76 546.133333 266.24 546.133333C252.586667 546.133333 232.106667 532.48 232.106667 512S252.586667 477.866667 266.24 477.866667l484.693333 0c20.48 0 34.133333 13.653333 34.133333 34.133333S771.413333 546.133333 757.76 546.133333z" p-id="1853"></path><path d="M512 798.72c-20.48 0-34.133333-13.653333-34.133333-34.133333l0-512c0-20.48 13.653333-34.133333 34.133333-34.133333 0 0 0 0 0 0C532.48 225.28 546.133333 238.933333 546.133333 252.586667l0 512C546.133333 785.066667 532.48 798.72 512 798.72 512 798.72 512 798.72 512 798.72z" p-id="1854"></path></svg>