<?xml version="1.0" standalone="no"?><!DOCTYPE svg PUBLIC "-//W3C//DTD SVG 1.1//EN" "http://www.w3.org/Graphics/SVG/1.1/DTD/svg11.dtd"><svg t="1520832930014" class="icon" style="" viewBox="0 0 1024 1024" version="1.1" xmlns="http://www.w3.org/2000/svg" p-id="3641" xmlns:xlink="http://www.w3.org/1999/xlink" width="200" height="200"><defs><style type="text/css"></style></defs><path d="M743.609497 246.474554l65.35959-66.289776c-44.255946-39.72577-96.335069-70.701249-153.84897-90.278119l55.082526 149.247162c0.476861-0.023536 0.905626-0.143263 1.38351-0.143263C723.103464 239.011582 733.880925 241.824651 743.609497 246.474554z" p-id="3642"></path><path d="M771.15076 873.959775c35.052331-25.179472 66.218144-55.248302 92.637864-89.299839L717.380112 387.971196c-1.932002 0.166799-3.815909 0.596588-5.79396 0.596588-13.044084 0-25.133424-3.648087-35.815717-9.513678l-96.048543 97.407494c5.723352 10.587126 9.275247 22.48613 9.275247 35.362392 0 41.299615-33.478486 74.7781-74.7781 74.7781-12.494569 0-24.083511-3.361561-34.432207-8.774851l-74.468039 75.541487c4.76963 9.848299 7.677866 20.744463 7.677866 32.429597 0 5.054109-0.524956 9.990538-1.478677 14.760169L771.15076 873.959775z" p-id="3643"></path><path d="M776.349155 277.04378c6.200212 10.897188 10.015098 23.321148 10.015098 36.745902 0 23.224957-10.803044 43.708478-27.42256 57.418734l135.797849 367.930767c39.607066-66.62235 62.760392-144.16747 62.760392-227.315192 0-115.744117-44.447305-220.830501-116.745934-300.091706L776.349155 277.04378z" p-id="3644"></path><path d="M389.771703 739.783867c-13.424754 12.80463-31.522947 20.792559-51.553143 20.792559-11.302417 0-21.914102-2.695389-31.499411-7.178493l-90.635253 91.923596c78.712713 69.78232 181.962262 112.51354 295.417243 112.51354 78.140685 0 151.512762-20.221554 215.370139-55.524594L389.771703 739.783867z" p-id="3645"></path><path d="M273.74106 723.06816c-6.367011-11.016915-10.3006-23.63121-10.3006-37.269835 0-41.299615 33.478486-74.779124 74.7781-74.779124 13.257955 0 25.538653 3.744277 36.33965 9.800203l73.610508-74.658374c-5.38873-10.32516-8.727779-21.890566-8.727779-34.337039 0-2.670829 0.524956-5.198395 0.786922-7.797593l-152.22703-83.887572c-13.091156 11.255345-29.90203 18.289552-48.500621 18.289552-41.299615 0-74.7781-33.478486-74.7781-74.7781 0-3.719718 0.572028-7.272637 1.096984-10.850116l-57.133232-31.475875c-27.398 57.824987-43.183522 122.254392-43.183522 190.499705 0 116.744911 45.210691 222.665289 118.605282 302.141388L273.74106 723.06816z" p-id="3646"></path><path d="M185.275215 312.406173c13.639648-14.426571 32.810267-23.535019 54.223972-23.535019 41.299615 0 74.7781 33.478486 74.7781 74.7781 0 6.414083-1.048889 12.518105-2.575662 18.456351l146.43307 80.716346c13.71128-15.666818 33.621748-25.777083 56.08332-25.777083 12.089339 0 23.321148 3.124154 33.431414 8.227382l97.120968-98.528014c-4.935406-9.991562-7.964392-21.055548-7.964392-32.954553 0-24.870434 12.257162-46.736441 30.928407-60.327994l-65.859987-178.457438c-29.186739-6.008854-59.398832-9.18008-90.373287-9.18008-162.075329 0-303.524898 86.748736-381.617487 216.037335L185.275215 312.406173z" p-id="3647"></path></svg>