<?xml version="1.0" standalone="no"?><!DOCTYPE svg PUBLIC "-//W3C//DTD SVG 1.1//EN" "http://www.w3.org/Graphics/SVG/1.1/DTD/svg11.dtd"><svg t="1511943580279" class="icon" style="" viewBox="0 0 1024 1024" version="1.1" xmlns="http://www.w3.org/2000/svg" p-id="3001" xmlns:xlink="http://www.w3.org/1999/xlink" width="64" height="64"><defs><style type="text/css"></style></defs><path d="M668.348 978.544a24.302 24.302 0 0 1-17.238-7.143c-9.524-9.524-9.524-24.952 0-34.476l310.094-310.094c9.143-9.143 14.143-21.429 14.048-34.524-0.143-13.238-5.381-25.762-14.905-35.238l-446.76-446.761c-9.524-9.524-9.524-24.952 0-34.476 9.524-9.524 24.952-9.524 34.476 0l446.761 446.761c18.619 18.571 28.952 43.19 29.19 69.333 0.191 26.238-9.857 50.905-28.333 69.381L685.586 971.401a24.3 24.3 0 0 1-17.238 7.143z" p-id="3002"></path><path d="M293.388 355.867c-29.984 29.984-78.596 29.974-108.588-0.018-29.991-29.991-30.009-78.609-0.024-108.594 30.014-30.014 78.635-29.999 108.626-0.008 29.991 29.993 30 78.606-0.014 108.62z" p-id="3003"></path><path d="M529.444 983.068c-19.571 0-37.952-7.571-51.762-21.333L41.636 525.64C17.921 501.974 0.017 458.783 0.017 425.164v-289.57c0-40.333 32.809-73.143 73.143-73.143h289.57c33 0 77.143 18.286 100.476 41.619L899.3 540.164c28.524 28.524 28.524 74.905 0 103.428L581.158 961.734c-13.809 13.762-32.19 21.334-51.714 21.334zM73.159 111.213c-13.429 0-24.381 10.952-24.381 24.381v289.571c0 20.286 13 51.714 27.333 66l436.046 436.094c9.143 9.143 25.381 9.143 34.524 0l318.142-318.142c9.524-9.524 9.524-24.952 0-34.476L428.73 138.546c-14.286-14.286-45.762-27.333-66-27.333H73.159z" p-id="3004"></path></svg>