<?xml version="1.0" standalone="no"?><!DOCTYPE svg PUBLIC "-//W3C//DTD SVG 1.1//EN" "http://www.w3.org/Graphics/SVG/1.1/DTD/svg11.dtd"><svg t="1524813048680" class="icon" style="" viewBox="0 0 1024 1024" version="1.1" xmlns="http://www.w3.org/2000/svg" p-id="4439" xmlns:xlink="http://www.w3.org/1999/xlink" width="200" height="200"><defs><style type="text/css"></style></defs><path d="M938.666667 725.333333 938.666667 298.666667 256 298.666667 256 725.333333 938.666667 725.333333M938.666667 213.333333C985.6 213.333333 1024 251.733333 1024 298.666667L1024 725.333333C1024 772.693333 985.6 810.666667 938.666667 810.666667L682.666667 810.666667 682.666667 896 768 896 768 981.333333 426.666667 981.333333 426.666667 896 512 896 512 810.666667 256 810.666667C208.64 810.666667 170.666667 772.693333 170.666667 725.333333L170.666667 298.666667C170.666667 251.733333 209.066667 213.333333 256 213.333333L938.666667 213.333333M85.333333 128 85.333333 640 0 640 0 128C0 81.066667 38.4 42.666667 85.333333 42.666667L853.333333 42.666667 853.333333 128 85.333333 128Z" p-id="4440"></path></svg>