<?xml version="1.0" standalone="no"?><!DOCTYPE svg PUBLIC "-//W3C//DTD SVG 1.1//EN" "http://www.w3.org/Graphics/SVG/1.1/DTD/svg11.dtd"><svg t="1511404155079" class="icon" style="" viewBox="0 0 1024 1024" version="1.1" xmlns="http://www.w3.org/2000/svg" p-id="6828" xmlns:xlink="http://www.w3.org/1999/xlink" width="64" height="64"><defs><style type="text/css"></style></defs><path d="M578.93 299.967c-43.118-33.075-103.991 0-103.991 0C256.809 508.583 89.84 443.877 89.84 443.877s-39.548 2.384-23.26 57.074C115.41 664.9 348.696 862.823 411.53 874.935c62.834 12.112 86.236 2.544 86.236 2.544l2.537-17.809C459.72 679.038 616.977 478.054 616.977 478.054c48.19-48.338 27.9-101.765 27.9-101.765-7.61-50.882-65.947-76.322-65.947-76.322z m3.203 162.348S419.138 681.582 439.43 806.244c0 0-43.118 25.443-40.582-99.218l-45.655 71.235s-25.364-48.342-55.8-40.708c0 0-22.829-35.615 81.163-152.647 0 0 10.146-20.35-15.218-7.63 0 0-73.554 99.218-121.746 99.218 0 0-60.873-33.073-48.19-78.867l78.628-68.693s-136.966 61.06-149.647-35.613c0 0 205.98 6.719 350.688-137.858 0 0 20.157-9.802 27.9-2.546 0 0 61.264 58.517 73.547 73.781 11.613 15.263 7.616 35.617 7.616 35.617z m341.813 313.932c-18.91 0-34.242 15.38-34.242 34.348 0 18.972 15.33 34.352 34.242 34.352s34.241-15.38 34.241-34.352c0-18.968-15.33-34.348-34.24-34.348z m-130.625-19.074c0-35.833-28.957-64.882-64.677-64.882-35.721 0-64.677 29.049-64.677 64.882 0 35.835 28.957 64.884 64.677 64.884 35.72 0 64.677-29.049 64.677-64.884zM842.714 68.45c-18.852-15.128-35.51 5.09-35.51 5.09L601.757 271.979c40.583 0 63.41 50.884 63.41 50.884l200.375-203.53c10.146-15.263 11.096-22.455 2.537-30.53s-6.512-5.224-25.365-20.352zM808.54 842.39c-28.016 0-50.729 22.787-50.729 50.892 0 28.105 22.713 50.889 50.729 50.889s50.727-22.784 50.727-50.89c0-28.104-22.711-50.89-50.727-50.89z" p-id="6829"></path></svg>