<?xml version="1.0" standalone="no"?><!DOCTYPE svg PUBLIC "-//W3C//DTD SVG 1.1//EN" "http://www.w3.org/Graphics/SVG/1.1/DTD/svg11.dtd"><svg t="1510714356869" class="icon" style="" viewBox="0 0 1024 1024" version="1.1" xmlns="http://www.w3.org/2000/svg" p-id="3378" xmlns:xlink="http://www.w3.org/1999/xlink" width="200" height="200"><defs><style type="text/css"></style></defs><path d="M818.731 844.026l-56.604-56.605a314.778 314.778 0 0 0 56.882-180.975c0-84.722-32.969-164.369-92.862-224.266a314.812 314.812 0 0 0-224.148-92.884 314.97 314.97 0 0 0-224.187 92.884 315.183 315.183 0 0 0-92.827 224.266c0 65.701 20.054 128.21 56.847 180.993l-56.569 56.587a393.175 393.175 0 0 1-79.53-237.58c0-105.902 41.213-205.464 116.045-280.34a393.62 393.62 0 0 1 280.22-116.104 393.619 393.619 0 0 1 280.218 116.104 393.976 393.976 0 0 1 116.048 280.34c0.001 86.922-28.175 169.345-79.533 237.58z m-554.49-277.384c21.885 0 39.626 17.741 39.626 39.626s-17.741 39.626-39.626 39.626c-21.886 0-39.625-17.741-39.625-39.626s17.739-39.626 39.625-39.626z m41.606-156.506a39.639 39.639 0 0 1 38.535-10.82 39.63 39.63 0 0 1 28.31 28.292 39.623 39.623 0 0 1-10.793 38.541c-15.543 15.022-40.258 14.817-55.549-0.462-15.29-15.281-15.514-39.997-0.503-55.551z m156.526-41.627a39.613 39.613 0 0 1 19.54-35.058 39.628 39.628 0 0 1 40.137-0.013 39.628 39.628 0 0 1 19.554 35.052c-0.475 21.535-18.066 38.743-39.604 38.75-21.542 0.005-39.139-17.197-39.627-38.731z m148.6 148.086s-41.096 190.026-57.499 218.461c-16.524 28.186-52.702 37.752-80.999 21.414-28.295-16.338-38.1-52.451-21.95-80.854 16.405-28.435 160.448-159.021 160.448-159.021z m87.158-106.459c15.474 15.473 15.474 40.56 0 56.033s-40.56 15.473-56.033 0a39.626 39.626 0 0 1-10.806-38.538 39.617 39.617 0 0 1 28.301-28.301 39.625 39.625 0 0 1 38.538 10.806z m41.627 156.506c21.885 0 39.626 17.741 39.626 39.626s-17.741 39.626-39.626 39.626-39.626-17.741-39.626-39.626 17.741-39.626 39.626-39.626z m0 0" p-id="3379"></path></svg>