<?xml version="1.0" standalone="no"?><!DOCTYPE svg PUBLIC "-//W3C//DTD SVG 1.1//EN" "http://www.w3.org/Graphics/SVG/1.1/DTD/svg11.dtd"><svg t="1524814125046" class="icon" style="" viewBox="0 0 1024 1024" version="1.1" xmlns="http://www.w3.org/2000/svg" p-id="12501" xmlns:xlink="http://www.w3.org/1999/xlink" width="200" height="200"><defs><style type="text/css"></style></defs><path d="M224 544v307.2c0 19.2 12.8 32 32 32h512c19.2 0 32-12.8 32-32v-320c0-166.4-147.2-300.8-313.6-288-153.6 6.4-262.4 147.2-262.4 300.8z m332.8-236.8c108.8 19.2 179.2 121.6 179.2 230.4v281.6h-448V524.8c0-134.4 128-249.6 268.8-217.6zM857.6 940.8H166.4c-19.2 0-32 12.8-32 32s12.8 32 32 32h691.2c19.2 0 32-12.8 32-32s-12.8-32-32-32zM512 211.2c19.2 0 32-12.8 32-32v-128c0-19.2-12.8-32-32-32s-32 12.8-32 32v134.4c0 12.8 12.8 25.6 32 25.6zM755.2 313.6c6.4 0 19.2 0 25.6-6.4l96-96c12.8-12.8 12.8-32 0-44.8s-32-12.8-44.8 0L736 256c-12.8 12.8-12.8 32 0 44.8 6.4 6.4 12.8 12.8 19.2 12.8zM992 486.4h-134.4c-19.2 0-32 12.8-32 32s12.8 32 32 32h134.4c19.2 0 32-12.8 32-32s-12.8-32-32-32zM243.2 300.8c6.4 6.4 12.8 6.4 25.6 6.4 6.4 0 19.2 0 25.6-6.4 12.8-12.8 12.8-32 0-44.8L198.4 166.4c-12.8-12.8-32-12.8-44.8 0s-12.8 32 0 44.8l89.6 89.6zM198.4 518.4c0-19.2-12.8-32-32-32H32c-19.2 0-32 19.2-32 32s12.8 32 32 32h134.4c12.8 0 32-12.8 32-32z" fill="" p-id="12502"></path></svg>