<?xml version="1.0" standalone="no"?><!DOCTYPE svg PUBLIC "-//W3C//DTD SVG 1.1//EN" "http://www.w3.org/Graphics/SVG/1.1/DTD/svg11.dtd"><svg t="1524813981698" class="icon" style="" viewBox="0 0 1024 1024" version="1.1" xmlns="http://www.w3.org/2000/svg" p-id="11495" xmlns:xlink="http://www.w3.org/1999/xlink" width="200" height="200"><defs><style type="text/css"></style></defs><path d="M160 729.6C211.2 729.6 256 768 256 825.6s-44.8 96-96 96S64 876.8 64 825.6 108.8 729.6 160 729.6M160 665.6c-89.6 0-160 70.4-160 160 0 89.6 70.4 160 160 160S320 908.8 320 825.6C320 736 249.6 665.6 160 665.6L160 665.6z" p-id="11496"></path><path d="M512 102.4c51.2 0 96 44.8 96 96S563.2 294.4 512 294.4 416 256 416 198.4 460.8 102.4 512 102.4M512 38.4c-89.6 0-160 70.4-160 160 0 89.6 70.4 160 160 160s160-70.4 160-160C672 115.2 601.6 38.4 512 38.4L512 38.4z" p-id="11497"></path><path d="M864 729.6c51.2 0 96 44.8 96 96s-44.8 96-96 96S768 876.8 768 825.6 812.8 729.6 864 729.6M864 665.6c-89.6 0-160 70.4-160 160 0 89.6 70.4 160 160 160s160-70.4 160-160C1024 736 953.6 665.6 864 665.6L864 665.6z" p-id="11498"></path><path d="M761.6 704c19.2-12.8 32-25.6 57.6-32L614.4 320C601.6 332.8 582.4 345.6 563.2 352L761.6 704z" p-id="11499"></path><path d="M262.4 704l198.4-352C441.6 345.6 422.4 332.8 409.6 320l-198.4 352C230.4 678.4 249.6 691.2 262.4 704z" p-id="11500"></path><path d="M710.4 857.6c0-12.8-6.4-19.2-6.4-32s0-19.2 6.4-32L313.6 793.6C320 800 320 812.8 320 825.6s0 19.2-6.4 32L710.4 857.6z" p-id="11501"></path></svg>